<?xml version="1.0" encoding="UTF-8"?>
<svg id="Capa_1" data-name="Capa 1" xmlns="http://www.w3.org/2000/svg" version="1.1" viewBox="0 0 1920 1080">
  <defs>
    <style>
      .cls-1 {
        fill: #235e81;
      }

      .cls-1, .cls-2 {
        stroke-width: 0px;
      }

      .cls-3 {
        fill: none;
        stroke: #fff;
        stroke-miterlimit: 10;
        stroke-width: 8.7px;
      }

      .cls-2 {
        fill: #0d3d63;
      }
    </style>
  </defs>
  <g>
    <path class="cls-2" d="M461.5,972.9c-26.4,0-47-10.3-64.2-31-79.1-94-41.3-275.3-4.6-401.4-4.6-14.9-8-27.5-9.2-53.9-4.6-122.7,131.9-340.6,256.9-403.7,24.1-12.6,52.8-19.5,81.4-19.5s36.7,3.4,53.9,10.3c37.8,17.2,53.9,57.3,50.5,122.7-4.6,106.7-33.3,211-67.7,313.1-42.4,127.3-107.8,314.2-205.3,412.9-22.9,24.1-57.3,50.5-91.7,50.5ZM412.2,478.6c27.5-65.4,74.5-186.9,102.1-186.9s4.6,1.1,6.9,3.4c14.9,14.9-28.7,26.4-99.8,242,20.6,52.8,28.7,45.9,26.4,56.2-1.1,6.9-5.7,12.6-12.6,12.6s-3.4,0-5.7-1.1c-12.6-4.6-19.5-22.9-20.6-22.9,0,1.1-32.1,106.7-28.7,199.6,1.1,43.6,4.6,71.1,11.5,92.9,13.8,35.6,37.8,72.3,71.1,72.3s13.8-2.3,21.8-5.7c156-70,313.1-589.5,314.2-752.4,1.1-34.4-8-66.5-20.6-79.1-12.6-11.5-34.4-18.4-59.6-18.4s-49.3,5.7-74.5,19.5c-110.1,61.9-237.4,264.9-231.7,368.2Z"/>
    <path class="cls-2" d="M825,456.8c1.1-1.1,3.4-1.1,4.6-1.1,5.7,0,10.3,5.7,10.3,12.6-2.3,8-16.1,26.4-28.7,68.8-3.4,9.2-4.6,14.9-3.4,14.9,3.4,0,11.5-8,31-24.1,45.9-37.8,72.3-58.5,87.2-64.2,4.6-1.1,8-2.3,11.5-2.3,6.9,0,12.6,3.4,16.1,10.3,5.7,12.6-1.1,35.6-29.8,121.6-10.3,28.7-12.6,36.7-11.5,36.7,0,0,2.3-3.4,5.7-6.9,34.4-36.7,90.6-92.9,123.9-127.3,19.5,2.3,19.5,17.2,12.6,24.1-81.4,81.4-153.7,160.6-161.7,172-10.3,13.8-76.8,251.2-96.3,293.6-11.5,25.2-33.3,61.9-55.1,61.9s-6.9-1.1-10.3-3.4c-31-17.2-47-141.1,125-349.8,11.5-14.9,6.9-6.9,17.2-36.7,13.8-45.9,56.2-162.9,51.6-162.9-8,0-102.1,84.9-119.3,91.8-4.6,1.1-8,2.3-10.3,2.3-8,0-13.8-4.6-16.1-12.6-8-22.9,31-114.7,45.9-119.3ZM839.9,758.5c0-2.3-70,89.5-91.8,172-5.7,19.5-9.2,58.5-6.9,70,1.1,10.3,2.3,17.2,4.6,17.2,3.4,0,18.3-21.8,31-55.1,8-19.5,63.1-204.1,63.1-204.1Z"/>
    <path class="cls-2" d="M1132.4,639.2c-24.1-17.2,1.1-119.3,0-120.4s-40.1,67.7-70,81.4c-3.4,1.1-6.9,2.3-10.3,2.3-14.9,0-26.4-12.6-28.7-34.4,0-18.3,20.6-109,43.6-109s10.3,4.6,9.2,12.6c-1.1,11.5-31,68.8-21.8,102.1,14.9-13.8,22.9-19.5,67.7-88.3,28.7-43.6,37.8-64.2,49.3-64.2s4.6,1.1,6.9,2.3c12.6,6.9,4.6,22.9-2.3,43.6-24.1,68.8-29.8,145.7-24.1,141.1,5.7-4.6,72.3-106.7,75.7-112.4,24.1,0,22.9,9.2,14.9,24.1-9.2,16.1-57.3,89.5-70,104.4-9.2,11.5-20.6,17.2-29.8,17.2s-6.9,0-10.3-2.3Z"/>
    <path class="cls-2" d="M1299.8,557.8c4.6,36.7,10.3,52.8,20.6,52.8s8-2.3,13.8-6.9c9.2-6.9,39-36.7,115.8-107.8,14.9,2.3,21.8,13.8,6.9,28.7-109,103.2-115.8,112.4-138.8,113.5-49.3,2.3-42.4-87.2-45.9-92.9-1.1-1.1-48.2,55.1-52.8,57.3-2.3,2.3-5.7,2.3-9.2,2.3s-6.9,0-9.2-1.1c-12.6-10.3,8-41.3,109-378.5,3.4-8,55-184.6,60.8-189.2,2.3-2.3,5.7-3.4,8-3.4,6.9,0,11.5,5.7,10.3,13.8-3.4,40.1-149.1,492-147.9,493.2,0,1.1,71.1-78,117-99.8,4.6-2.3,9.2-3.4,12.6-3.4,19.5,0,29.8,24.1-19.5,68.8-55,49.3-56.2,12.6-51.6,52.8Z"/>
    <path class="cls-2" d="M1552.1,495.8c17.2,3.4,21.8,12.6,12.6,22.9-16.1,20.6-86,94-111.3,94s-20.6-9.2-22.9-31c-1.1-28.7,25.2-110.1,34.4-122.7,3.4-4.6,8-6.9,12.6-6.9s3.4,0,5.7,1.1c6.9,4.6,6.9,8-1.1,27.5-21.8,56.2-26.4,102.1-21.8,102.1s88.3-83.7,91.7-87.2ZM1513.1,391.5c-2.3,13.8-10.3,18.4-17.2,18.4-10.3,0-18.4-11.5-5.7-25.2,4.6-4.6,9.2-6.9,12.6-6.9,6.9,0,11.5,6.9,10.3,13.8Z"/>
  </g>
  <g>
    <g>
      <path class="cls-3" d="M183.9,828.3v-5.1h.3c5,0,9.1-1.6,12.2-4.7,3.1-3.1,4.7-7.2,4.7-12.3v-111.3l-54.6,133.4h-5l-67.7-117.4v95.3c0,5.1,1.6,9.2,4.7,12.3,3.1,3.1,7.2,4.7,12.2,4.7h.3v5.1h-39.3v-5.1h.3c5,0,9.1-1.6,12.2-4.7,3.1-3.1,4.7-7.2,4.7-12.3v-108.3c0-5.1-1.6-9.2-4.7-12.3-3.1-3.1-7.2-4.7-12.2-4.7h-.3v-5.1h37l67,116.6,48.1-116.6h44.8v5.1h-.3c-5,0-9.1,1.6-12.2,4.7-3.1,3.1-4.7,7.2-4.7,12.3v108.3c0,5.1,1.5,9.2,4.7,12.3,3.1,3.1,7.2,4.7,12.2,4.7h.3v5.1h-64.5Z"/>
      <path class="cls-3" d="M308.3,698c0-5.1-1.6-9.2-4.7-12.3-3.1-3.1-7.2-4.7-12.2-4.7h-.3v-5.1h64.5v5.1h-.3c-5,0-9.1,1.6-12.2,4.7-3.1,3.1-4.7,7.2-4.7,12.3v108.3c0,5.1,1.5,9.2,4.7,12.3,3.1,3.1,7.2,4.7,12.2,4.7h.3v5.1h-64.5v-5.1h.3c5,0,9.1-1.6,12.2-4.7,3.1-3.1,4.7-7.2,4.7-12.3v-108.3Z"/>
      <path class="cls-3" d="M404.2,785.9h5c1.2,5.6,3.6,10.8,7.3,15.7,3.7,4.9,8.1,9.1,13.1,12.7,5,3.5,10.6,6.3,16.6,8.4,6,2,12.1,3,18.1,3s9.6-.4,13.8-1.1c4.2-.8,7.8-2.1,11-3.9,3.1-1.9,5.5-4.3,7.3-7.2,1.8-3,2.6-6.5,2.6-10.8s-1.4-10.6-4.3-14.7c-2.9-4.1-6.5-7.5-11.1-10.4-4.5-2.9-9.7-5.4-15.6-7.7-5.9-2.3-11.9-4.5-18.1-6.7-6.2-2.2-12.3-4.6-18.1-7.1-5.9-2.5-11.1-5.7-15.6-9.4-4.5-3.7-8.2-8.1-11.1-13.2-2.9-5.1-4.3-11.2-4.3-18.5s1.8-13.5,5.5-18.8c3.7-5.2,8.3-9.6,13.8-12.9,5.5-3.4,11.7-5.9,18.4-7.5,6.7-1.6,13.1-2.4,19.1-2.4s7.3.2,10.3.6c3,.4,5.8.8,8.3,1.3,2.5.4,4.9.9,7.2,1.3,2.3.4,4.5.6,6.7.6s4.8-.3,7.4-1c2.6-.7,5.6-2,8.9-4.1l2-1.3h1.5l2.8,47.4h-5c-1.2-5.7-3.4-11-6.5-15.8-3.2-4.8-7.1-9-11.7-12.6-4.6-3.5-9.7-6.3-15.2-8.4-5.5-2-11.3-3-17.4-3s-7,.4-10.6,1.3c-3.5.9-6.8,2.2-9.7,4.1-2.9,1.9-5.3,4.3-7.2,7.2-1.8,3-2.8,6.5-2.8,10.5s1.3,10.3,4,14.2c2.7,3.9,6.3,7.3,10.8,10.1,4.5,2.9,9.7,5.4,15.5,7.6,5.8,2.2,11.7,4.4,17.8,6.6,6,2.2,12,4.6,17.7,7.1,5.8,2.5,11,5.6,15.5,9.1,4.5,3.6,8.2,7.8,11,12.8,2.8,5,4.2,10.9,4.2,17.9s-1.7,14.4-5.2,19.9c-3.4,5.5-7.9,10-13.2,13.6s-11.5,6.2-18.3,7.9c-6.8,1.7-13.6,2.5-20.3,2.5s-9.5-.3-13.3-.9c-3.9-.6-7.4-1.3-10.7-2-3.3-.8-6.3-1.4-9.1-2-2.8-.6-5.5-.9-8.2-.9s-4.7.3-7.2,1c-2.4.7-5.1,1.9-7.9,3.5l-2,1.3h-1.5l-2.3-44.9Z"/>
      <path class="cls-3" d="M692.5,812.3c-1.8,3.4-2.2,6-1.1,8,1.1,1.9,3.6,2.9,7.4,2.9h2.5v5.1h-35.8v-5.1h2.3c3.9,0,7.5-1,11-2.9,3.4-1.9,6.1-4.6,7.9-8l34-59.3-36-61.1c-2.9-4.9-5.8-7.9-8.8-9.1-3-1.2-6.5-1.8-10.3-1.8v-5.1h60.4v5.1c-3.9,0-6.3,1-7.3,2.9-1,1.9-.6,4.6,1.3,8l32,54.3,31.5-54.3c1.8-3.4,2.2-6,1.1-8-1.1-1.9-3.6-2.9-7.4-2.9h-2.5v-5.1h35.8v5.1h-2.3c-3.9,0-7.5,1-11,2.9-3.4,1.9-6.1,4.6-7.9,8l-34,59.3,36,61.1c2.9,4.9,5.8,7.9,8.8,9.1,3,1.2,6.5,1.8,10.3,1.8v5.1h-60.4v-5.1c3.9,0,6.3-1,7.3-2.9,1-1.9.6-4.6-1.3-8l-32.2-54-31.2,54Z"/>
      <path class="cls-3" d="M845.6,675.9h64.5v5.1h-1c-4.5,0-7.6,1.3-9.1,3.8-1.5,2.5-1.3,5.8.5,9.9l45.6,97.1,38-95.1c2-4.9,2.1-8.7.1-11.5-1.9-2.8-5.8-4.2-11.7-4.2h-.5v-5.1h39.3v5.1h-.8c-4.5,0-8.5.9-12,2.7-3.4,1.8-6.3,5.6-8.7,11.5l-52.9,133.1h-7.3l-62.4-133.6c-1.8-4.1-4.8-7.4-8.8-9.9-4-2.5-8.3-3.8-12.8-3.8v-5.1Z"/>
      <path class="cls-3" d="M1217.5,680.7l9.3-4.8,59.4,133.4c1.8,4.2,4.7,7.6,8.7,10.1,3.9,2.5,8.2,3.8,12.7,3.8v5.1h-63.5v-5.1c4.5,0,7.6-1.3,9.2-3.8,1.6-2.5,1.5-5.9-.4-10.1l-14.9-33.2h-54.9l-13.6,32.5c-1.8,4.4-1.9,7.9-.3,10.6,1.7,2.7,4.9,4.1,9.8,4.1h2v5.1h-39.3v-5.1c4.9,0,9.4-1.4,13.5-4.2,4.1-2.8,7.3-6.8,9.4-12l52.6-126.3ZM1235.9,771l-25.9-58.8-24.7,58.8h50.6Z"/>
      <path class="cls-3" d="M1363.8,698c0-5.1-1.6-9.2-4.7-12.3-3.1-3.1-7.2-4.7-12.2-4.7h-.3v-5.1h40.5l93.4,110v-88c0-5.1-1.6-9.2-4.7-12.3-3.1-3.1-7.2-4.7-12.2-4.7h-.3v-5.1h39.3v5.1h-.3c-5,0-9.1,1.6-12.2,4.7-3.1,3.1-4.7,7.2-4.7,12.3v130.3h-8.3l-108.5-127.3v105.2c0,5.1,1.6,9.2,4.7,12.3,3.1,3.1,7.2,4.7,12.2,4.7h.3v5.1h-39.3v-5.1h.3c5,0,9.1-1.6,12.2-4.7,3.1-3.1,4.7-7.2,4.7-12.3v-108.3ZM1384.7,665.8c.2-3.7.6-7.5,1.4-11.3.8-3.8,2-7.2,3.8-10.3s4.1-5.5,6.9-7.5c2.9-1.9,6.5-2.9,11.1-2.9s7.8.9,11.5,2.7c3.6,1.8,7.1,3.8,10.3,6,3.3,2.2,6.4,4.2,9.4,6s5.9,2.7,8.6,2.7,4-.6,5.4-1.8c1.4-1.2,2.6-2.7,3.4-4.4.8-1.8,1.5-3.6,2-5.6.5-1.9.8-3.8,1-5.5h3.8v1.3c0,3.5-.4,7.2-1.3,10.9-.8,3.7-2.2,7.1-4.2,10s-4.4,5.4-7.3,7.4-6.5,2.9-10.7,2.9-7.9-.9-11.6-2.8c-3.7-1.9-7.2-3.8-10.6-6s-6.5-4.1-9.4-6c-2.9-1.9-5.7-2.8-8.2-2.8s-4,.5-5.4,1.6c-1.4,1.1-2.5,2.5-3.3,4.2-.8,1.7-1.3,3.5-1.8,5.6-.4,2-.8,3.9-1.1,5.6h-3.8Z"/>
      <path class="cls-3" d="M1622.1,830.8c-12.6,0-23.6-2.2-33.1-6.7-9.5-4.5-17.4-10.4-23.7-17.9-6.3-7.4-11-15.8-14.2-25.2-3.2-9.4-4.8-19-4.8-28.9s1.6-19.5,4.8-28.9c3.2-9.4,7.9-17.8,14.2-25.2,6.3-7.4,14.2-13.4,23.7-17.9,9.5-4.5,20.5-6.7,33.1-6.7s23.6,2.2,33.1,6.7c9.5,4.5,17.4,10.4,23.7,17.9,6.3,7.4,11,15.8,14.2,25.2,3.2,9.4,4.8,19,4.8,28.9s-1.6,19.5-4.8,28.9c-3.2,9.4-7.9,17.8-14.2,25.2-6.3,7.4-14.2,13.4-23.7,17.9-9.5,4.5-20.5,6.7-33.1,6.7ZM1622.1,824.7c9.6,0,17.5-3.6,23.8-10.8,6.3-7.2,11-16.2,14.2-27,3.2-10.8,4.8-22.5,4.8-35s-1.6-24.2-4.8-35c-3.2-10.8-7.9-19.8-14.2-27-6.3-7.2-14.2-10.8-23.8-10.8s-17.5,3.6-23.8,10.8c-6.3,7.2-11,16.2-14.2,27-3.2,10.8-4.8,22.5-4.8,35s1.6,24.2,4.8,35c3.2,10.8,7.9,19.8,14.2,27,6.3,7.2,14.2,10.8,23.8,10.8Z"/>
      <path class="cls-3" d="M1749,785.9h5c1.2,5.6,3.6,10.8,7.3,15.7,3.7,4.9,8.1,9.1,13.1,12.7,5,3.5,10.6,6.3,16.6,8.4,6,2,12.1,3,18.1,3s9.6-.4,13.8-1.1c4.2-.8,7.8-2.1,11-3.9,3.1-1.9,5.5-4.3,7.3-7.2,1.8-3,2.6-6.5,2.6-10.8s-1.4-10.6-4.3-14.7c-2.9-4.1-6.5-7.5-11.1-10.4-4.5-2.9-9.7-5.4-15.6-7.7-5.9-2.3-11.9-4.5-18.1-6.7-6.2-2.2-12.3-4.6-18.1-7.1-5.9-2.5-11.1-5.7-15.6-9.4-4.5-3.7-8.2-8.1-11.1-13.2-2.9-5.1-4.3-11.2-4.3-18.5s1.8-13.5,5.5-18.8c3.7-5.2,8.3-9.6,13.8-12.9,5.5-3.4,11.7-5.9,18.4-7.5,6.7-1.6,13.1-2.4,19.1-2.4s7.3.2,10.3.6c3,.4,5.8.8,8.3,1.3,2.5.4,4.9.9,7.2,1.3,2.3.4,4.5.6,6.7.6s4.8-.3,7.4-1c2.6-.7,5.6-2,8.9-4.1l2-1.3h1.5l2.8,47.4h-5c-1.2-5.7-3.4-11-6.5-15.8-3.2-4.8-7.1-9-11.7-12.6-4.6-3.5-9.7-6.3-15.2-8.4-5.5-2-11.3-3-17.4-3s-7,.4-10.6,1.3c-3.5.9-6.8,2.2-9.7,4.1-2.9,1.9-5.3,4.3-7.2,7.2-1.8,3-2.8,6.5-2.8,10.5s1.3,10.3,4,14.2c2.7,3.9,6.3,7.3,10.8,10.1,4.5,2.9,9.7,5.4,15.5,7.6,5.8,2.2,11.7,4.4,17.8,6.6,6,2.2,12,4.6,17.7,7.1,5.8,2.5,11,5.6,15.5,9.1,4.5,3.6,8.2,7.8,11,12.8,2.8,5,4.2,10.9,4.2,17.9s-1.7,14.4-5.2,19.9c-3.4,5.5-7.9,10-13.2,13.6-5.4,3.5-11.5,6.2-18.3,7.9-6.8,1.7-13.6,2.5-20.3,2.5s-9.5-.3-13.3-.9c-3.9-.6-7.4-1.3-10.7-2-3.3-.8-6.3-1.4-9.1-2-2.8-.6-5.5-.9-8.2-.9s-4.7.3-7.2,1c-2.4.7-5.1,1.9-7.9,3.5l-2,1.3h-1.5l-2.3-44.9Z"/>
    </g>
    <g>
      <path class="cls-1" d="M184.3,828.3v-5.1h.3c5,0,9.1-1.6,12.2-4.7,3.1-3.1,4.7-7.2,4.7-12.3v-111.3l-54.6,133.4h-5l-67.7-117.4v95.3c0,5.1,1.6,9.2,4.7,12.3,3.1,3.1,7.2,4.7,12.2,4.7h.3v5.1h-39.3v-5.1h.3c5,0,9.1-1.6,12.2-4.7,3.1-3.1,4.7-7.2,4.7-12.3v-108.3c0-5.1-1.6-9.2-4.7-12.3-3.1-3.1-7.2-4.7-12.2-4.7h-.3v-5.1h37l67,116.6,48.1-116.6h44.8v5.1h-.3c-5,0-9.1,1.6-12.2,4.7-3.1,3.1-4.7,7.2-4.7,12.3v108.3c0,5.1,1.5,9.2,4.7,12.3,3.1,3.1,7.2,4.7,12.2,4.7h.3v5.1h-64.5Z"/>
      <path class="cls-1" d="M308.7,698c0-5.1-1.6-9.2-4.7-12.3-3.1-3.1-7.2-4.7-12.2-4.7h-.3v-5.1h64.5v5.1h-.3c-5,0-9.1,1.6-12.2,4.7-3.1,3.1-4.7,7.2-4.7,12.3v108.3c0,5.1,1.5,9.2,4.7,12.3,3.1,3.1,7.2,4.7,12.2,4.7h.3v5.1h-64.5v-5.1h.3c5,0,9.1-1.6,12.2-4.7,3.1-3.1,4.7-7.2,4.7-12.3v-108.3Z"/>
      <path class="cls-1" d="M404.6,785.9h5c1.2,5.6,3.6,10.8,7.3,15.7,3.7,4.9,8.1,9.1,13.1,12.7s10.6,6.3,16.6,8.4c6,2,12.1,3,18.1,3s9.6-.4,13.8-1.1c4.2-.8,7.8-2.1,11-3.9,3.1-1.9,5.5-4.3,7.3-7.2,1.8-3,2.6-6.5,2.6-10.8s-1.4-10.6-4.3-14.7c-2.9-4.1-6.5-7.5-11.1-10.4-4.5-2.9-9.7-5.4-15.6-7.7-5.9-2.3-11.9-4.5-18.1-6.7-6.2-2.2-12.3-4.6-18.1-7.1-5.9-2.5-11.1-5.7-15.6-9.4-4.5-3.7-8.2-8.1-11.1-13.2-2.9-5.1-4.3-11.2-4.3-18.5s1.8-13.5,5.5-18.8c3.7-5.2,8.3-9.6,13.8-12.9,5.5-3.4,11.7-5.9,18.4-7.5,6.7-1.6,13.1-2.4,19.1-2.4s7.3.2,10.3.6c3,.4,5.8.8,8.3,1.3,2.5.4,4.9.9,7.2,1.3,2.3.4,4.5.6,6.7.6s4.8-.3,7.4-1c2.6-.7,5.6-2,8.9-4.1l2-1.3h1.5l2.8,47.4h-5c-1.2-5.7-3.4-11-6.5-15.8-3.2-4.8-7.1-9-11.7-12.6-4.6-3.5-9.7-6.3-15.2-8.4s-11.3-3-17.4-3-7,.4-10.6,1.3c-3.5.9-6.8,2.2-9.7,4.1-2.9,1.9-5.3,4.3-7.2,7.2-1.8,3-2.8,6.5-2.8,10.5s1.3,10.3,4,14.2c2.7,3.9,6.3,7.3,10.8,10.1,4.5,2.9,9.7,5.4,15.5,7.6,5.8,2.2,11.7,4.4,17.8,6.6,6,2.2,12,4.6,17.7,7.1,5.8,2.5,11,5.6,15.5,9.1,4.5,3.6,8.2,7.8,11,12.8,2.8,5,4.2,10.9,4.2,17.9s-1.7,14.4-5.2,19.9c-3.4,5.5-7.9,10-13.2,13.6-5.4,3.5-11.5,6.2-18.3,7.9-6.8,1.7-13.6,2.5-20.3,2.5s-9.5-.3-13.3-.9c-3.9-.6-7.4-1.3-10.7-2-3.3-.8-6.3-1.4-9.1-2-2.8-.6-5.5-.9-8.2-.9s-4.7.3-7.2,1c-2.4.7-5.1,1.9-7.9,3.5l-2,1.3h-1.5l-2.3-44.9Z"/>
      <path class="cls-1" d="M692.9,812.3c-1.8,3.4-2.2,6-1.1,8,1.1,1.9,3.6,2.9,7.4,2.9h2.5v5.1h-35.8v-5.1h2.3c3.9,0,7.5-1,11-2.9,3.4-1.9,6.1-4.6,7.9-8l34-59.3-36-61.1c-2.9-4.9-5.8-7.9-8.8-9.1-3-1.2-6.5-1.8-10.3-1.8v-5.1h60.4v5.1c-3.9,0-6.3,1-7.3,2.9s-.6,4.6,1.3,8l32,54.3,31.5-54.3c1.8-3.4,2.2-6,1.1-8-1.1-1.9-3.6-2.9-7.4-2.9h-2.5v-5.1h35.8v5.1h-2.3c-3.9,0-7.5,1-11,2.9-3.4,1.9-6.1,4.6-7.9,8l-34,59.3,36,61.1c2.9,4.9,5.8,7.9,8.8,9.1,3,1.2,6.5,1.8,10.3,1.8v5.1h-60.4v-5.1c3.9,0,6.3-1,7.3-2.9,1-1.9.6-4.6-1.3-8l-32.2-54-31.2,54Z"/>
      <path class="cls-1" d="M846,675.9h64.5v5.1h-1c-4.5,0-7.6,1.3-9.1,3.8-1.5,2.5-1.3,5.8.5,9.9l45.6,97.1,38-95.1c2-4.9,2.1-8.7.1-11.5-1.9-2.8-5.8-4.2-11.7-4.2h-.5v-5.1h39.3v5.1h-.8c-4.5,0-8.5.9-12,2.7-3.4,1.8-6.3,5.6-8.7,11.5l-52.9,133.1h-7.3l-62.4-133.6c-1.8-4.1-4.8-7.4-8.8-9.9-4-2.5-8.3-3.8-12.8-3.8v-5.1Z"/>
      <path class="cls-1" d="M1217.9,680.7l9.3-4.8,59.4,133.4c1.8,4.2,4.7,7.6,8.7,10.1,3.9,2.5,8.2,3.8,12.7,3.8v5.1h-63.5v-5.1c4.5,0,7.6-1.3,9.2-3.8,1.6-2.5,1.5-5.9-.4-10.1l-14.9-33.2h-54.9l-13.6,32.5c-1.8,4.4-1.9,7.9-.3,10.6,1.7,2.7,4.9,4.1,9.8,4.1h2v5.1h-39.3v-5.1c4.9,0,9.4-1.4,13.5-4.2,4.1-2.8,7.3-6.8,9.4-12l52.6-126.3ZM1236.3,771l-25.9-58.8-24.7,58.8h50.6Z"/>
      <path class="cls-1" d="M1364.2,698c0-5.1-1.6-9.2-4.7-12.3-3.1-3.1-7.2-4.7-12.2-4.7h-.3v-5.1h40.5l93.4,110v-88c0-5.1-1.6-9.2-4.7-12.3-3.1-3.1-7.2-4.7-12.2-4.7h-.3v-5.1h39.3v5.1h-.3c-5,0-9.1,1.6-12.2,4.7-3.1,3.1-4.7,7.2-4.7,12.3v130.3h-8.3l-108.5-127.3v105.2c0,5.1,1.6,9.2,4.7,12.3,3.1,3.1,7.2,4.7,12.2,4.7h.3v5.1h-39.3v-5.1h.3c5,0,9.1-1.6,12.2-4.7,3.1-3.1,4.7-7.2,4.7-12.3v-108.3ZM1385.1,665.8c.2-3.7.6-7.5,1.4-11.3.8-3.8,2-7.2,3.8-10.3s4.1-5.5,6.9-7.5c2.9-1.9,6.5-2.9,11.1-2.9s7.8.9,11.5,2.7c3.6,1.8,7.1,3.8,10.3,6,3.3,2.2,6.4,4.2,9.4,6s5.9,2.7,8.6,2.7,4-.6,5.4-1.8c1.4-1.2,2.6-2.7,3.4-4.4.8-1.8,1.5-3.6,2-5.6.5-1.9.8-3.8,1-5.5h3.8v1.3c0,3.5-.4,7.2-1.3,10.9-.8,3.7-2.2,7.1-4.2,10-1.9,3-4.4,5.4-7.3,7.4s-6.5,2.9-10.7,2.9-7.9-.9-11.6-2.8c-3.7-1.9-7.2-3.8-10.6-6s-6.5-4.1-9.4-6c-2.9-1.9-5.7-2.8-8.2-2.8s-4,.5-5.4,1.6c-1.4,1.1-2.5,2.5-3.3,4.2-.8,1.7-1.3,3.5-1.8,5.6-.4,2-.8,3.9-1.1,5.6h-3.8Z"/>
      <path class="cls-1" d="M1622.5,830.8c-12.6,0-23.6-2.2-33.1-6.7-9.5-4.5-17.4-10.4-23.7-17.9-6.3-7.4-11-15.8-14.2-25.2s-4.8-19-4.8-28.9,1.6-19.5,4.8-28.9,7.9-17.8,14.2-25.2c6.3-7.4,14.2-13.4,23.7-17.9,9.5-4.5,20.5-6.7,33.1-6.7s23.6,2.2,33.1,6.7c9.5,4.5,17.4,10.4,23.7,17.9,6.3,7.4,11,15.8,14.2,25.2,3.2,9.4,4.8,19,4.8,28.9s-1.6,19.5-4.8,28.9c-3.2,9.4-7.9,17.8-14.2,25.2-6.3,7.4-14.2,13.4-23.7,17.9-9.5,4.5-20.5,6.7-33.1,6.7ZM1622.5,824.7c9.6,0,17.5-3.6,23.8-10.8,6.3-7.2,11-16.2,14.2-27,3.2-10.8,4.8-22.5,4.8-35s-1.6-24.2-4.8-35c-3.2-10.8-7.9-19.8-14.2-27-6.3-7.2-14.2-10.8-23.8-10.8s-17.5,3.6-23.8,10.8c-6.3,7.2-11,16.2-14.2,27-3.2,10.8-4.8,22.5-4.8,35s1.6,24.2,4.8,35c3.2,10.8,7.9,19.8,14.2,27,6.3,7.2,14.2,10.8,23.8,10.8Z"/>
      <path class="cls-1" d="M1749.4,785.9h5c1.2,5.6,3.6,10.8,7.3,15.7,3.7,4.9,8.1,9.1,13.1,12.7,5,3.5,10.6,6.3,16.6,8.4,6,2,12.1,3,18.1,3s9.6-.4,13.8-1.1c4.2-.8,7.8-2.1,11-3.9,3.1-1.9,5.5-4.3,7.3-7.2,1.8-3,2.6-6.5,2.6-10.8s-1.4-10.6-4.3-14.7c-2.9-4.1-6.5-7.5-11.1-10.4-4.5-2.9-9.7-5.4-15.6-7.7-5.9-2.3-11.9-4.5-18.1-6.7-6.2-2.2-12.3-4.6-18.1-7.1-5.9-2.5-11.1-5.7-15.6-9.4-4.5-3.7-8.2-8.1-11.1-13.2-2.9-5.1-4.3-11.2-4.3-18.5s1.8-13.5,5.5-18.8c3.7-5.2,8.3-9.6,13.8-12.9,5.5-3.4,11.7-5.9,18.4-7.5,6.7-1.6,13.1-2.4,19.1-2.4s7.3.2,10.3.6c3,.4,5.8.8,8.3,1.3,2.5.4,4.9.9,7.2,1.3,2.3.4,4.5.6,6.7.6s4.8-.3,7.4-1c2.6-.7,5.6-2,8.9-4.1l2-1.3h1.5l2.8,47.4h-5c-1.2-5.7-3.4-11-6.5-15.8-3.2-4.8-7.1-9-11.7-12.6-4.6-3.5-9.7-6.3-15.2-8.4-5.5-2-11.3-3-17.4-3s-7,.4-10.6,1.3c-3.5.9-6.8,2.2-9.7,4.1-2.9,1.9-5.3,4.3-7.2,7.2-1.8,3-2.8,6.5-2.8,10.5s1.3,10.3,4,14.2c2.7,3.9,6.3,7.3,10.8,10.1,4.5,2.9,9.7,5.4,15.5,7.6,5.8,2.2,11.7,4.4,17.8,6.6,6,2.2,12,4.6,17.7,7.1,5.8,2.5,11,5.6,15.5,9.1,4.5,3.6,8.2,7.8,11,12.8,2.8,5,4.2,10.9,4.2,17.9s-1.7,14.4-5.2,19.9c-3.4,5.5-7.9,10-13.2,13.6-5.4,3.5-11.5,6.2-18.3,7.9-6.8,1.7-13.6,2.5-20.3,2.5s-9.5-.3-13.3-.9c-3.9-.6-7.4-1.3-10.7-2-3.3-.8-6.3-1.4-9.1-2-2.8-.6-5.5-.9-8.2-.9s-4.7.3-7.2,1c-2.4.7-5.1,1.9-7.9,3.5l-2,1.3h-1.5l-2.3-44.9Z"/>
    </g>
  </g>
</svg>